<?xml version="1.0" standalone="no"?>
<!DOCTYPE svg PUBLIC "-//W3C//DTD SVG 20010904//EN"
 "http://www.w3.org/TR/2001/REC-SVG-20010904/DTD/svg10.dtd">
<svg version="1.0" xmlns="http://www.w3.org/2000/svg"
 width="3076.000000pt" height="3072.000000pt" viewBox="0 0 3076.000000 3072.000000"
 preserveAspectRatio="xMidYMid meet">

<g transform="translate(0.000000,3072.000000) scale(0.100000,-0.100000)"
fill="#000000" stroke="none">
<path d="M6010 30423 c-58 -10 -200 -58 -265 -89 -246 -118 -476 -408 -610
-769 -65 -175 -162 -501 -196 -659 -58 -270 -158 -804 -194 -1029 -8 -54 -26
-196 -40 -315 -108 -947 -130 -1850 -74 -2977 69 -1407 40 -2680 -72 -3180
-27 -120 -92 -326 -141 -450 -56 -141 -335 -672 -389 -740 -11 -14 -175 -309
-267 -480 -41 -77 -92 -171 -114 -210 -93 -168 -338 -677 -418 -870 -21 -49
-63 -151 -95 -225 -259 -609 -523 -1476 -641 -2105 -102 -542 -134 -792 -175
-1345 -19 -245 -16 -957 4 -1210 44 -545 115 -1025 223 -1500 15 -63 30 -132
34 -154 4 -21 13 -42 20 -46 15 -10 259 -35 266 -27 3 3 -2 35 -10 71 -39 162
-46 195 -60 266 -8 41 -24 118 -36 170 -31 140 -38 178 -45 245 -3 33 -10 87
-15 120 -40 258 -52 342 -70 500 -38 342 -50 558 -50 930 1 596 30 952 135
1650 17 115 83 442 125 625 125 535 327 1154 563 1725 237 571 547 1189 845
1685 167 277 352 625 420 790 216 520 271 1002 272 2375 0 374 -4 730 -9 790
-6 61 -12 207 -16 325 -3 118 -10 312 -15 430 -29 679 -32 802 -27 1160 5 358
10 474 38 895 24 369 60 706 105 1000 8 55 22 145 30 200 17 107 41 237 106
565 107 543 234 945 374 1179 264 445 647 525 1214 254 349 -167 563 -300 905
-567 528 -410 994 -930 1432 -1596 42 -63 162 -252 266 -420 275 -441 491
-760 651 -961 301 -376 555 -542 876 -570 126 -12 203 -7 355 21 55 10 186 34
290 54 437 81 951 149 1390 186 138 11 304 25 370 30 146 12 884 35 1125 35
220 0 612 -12 795 -25 77 -5 194 -12 260 -15 66 -3 170 -10 230 -15 61 -5 173
-14 250 -20 552 -42 1034 -109 1755 -244 544 -102 1181 -256 1662 -401 391
-119 1238 -416 1428 -502 30 -14 109 -47 175 -73 158 -63 396 -167 625 -273
180 -84 755 -371 775 -387 6 -5 75 -43 154 -85 79 -42 207 -113 285 -159 78
-45 184 -107 236 -136 228 -130 940 -600 1210 -800 818 -607 1512 -1225 2145
-1911 419 -453 935 -1095 1198 -1489 156 -234 283 -381 342 -396 52 -13 132 5
320 71 204 73 699 269 830 330 44 20 136 61 205 90 69 29 168 72 220 95 84 37
162 69 480 199 224 91 581 220 682 246 32 9 64 18 73 21 13 5 15 -43 18 -412
2 -378 2 -363 4 156 2 316 -1 571 -5 565 -4 -5 -117 -47 -252 -92 -368 -124
-386 -130 -835 -311 -82 -34 -213 -89 -290 -123 -77 -34 -196 -85 -265 -114
-69 -29 -199 -85 -290 -125 -386 -167 -786 -316 -819 -305 -9 3 -47 51 -84
108 -153 229 -293 424 -480 665 -54 70 -125 163 -159 207 -34 44 -90 112 -123
150 -33 39 -95 113 -138 165 -407 503 -1227 1321 -1765 1763 -53 43 -124 104
-159 135 -35 30 -97 81 -137 111 -40 31 -104 81 -142 112 -97 78 -342 264
-427 325 -40 28 -110 78 -157 112 -435 311 -1079 715 -1545 969 -261 142 -702
368 -885 453 -63 29 -160 75 -215 101 -140 66 -652 285 -760 324 -100 36 -243
91 -350 135 -102 42 -511 181 -785 268 -270 86 -827 241 -1110 309 -656 157
-1100 240 -1805 338 -480 67 -656 86 -1225 130 -718 55 -1780 51 -2500 -11
-269 -22 -635 -62 -790 -84 -74 -11 -216 -31 -315 -45 -99 -15 -270 -42 -380
-61 -110 -20 -263 -47 -339 -60 -197 -35 -395 -35 -489 -1 -210 76 -462 323
-743 727 -129 186 -177 258 -246 375 -108 181 -317 510 -515 811 -360 544
-802 1041 -1283 1440 -349 289 -826 597 -1133 730 -135 59 -354 130 -462 148
-83 15 -283 20 -345 9z"/>
<path d="M9805 21963 c-425 -36 -863 -147 -1280 -325 -205 -87 -563 -273 -607
-315 -81 -78 -106 -211 -58 -306 35 -69 106 -132 171 -151 104 -31 160 -18
321 75 281 162 577 287 895 379 485 141 857 154 1183 44 346 -118 582 -329
712 -639 51 -123 79 -166 126 -198 56 -38 107 -50 186 -45 80 5 120 22 171 73
59 59 70 89 70 190 l0 90 -66 135 c-36 74 -85 167 -109 205 -240 392 -670 668
-1180 759 -154 28 -399 41 -535 29z"/>
<path d="M8350 18369 c-329 -21 -671 -117 -1015 -283 -183 -89 -476 -259 -512
-298 -66 -70 -226 -546 -282 -838 -48 -246 -67 -546 -51 -783 42 -594 266
-1091 671 -1481 316 -306 684 -490 1164 -582 131 -26 158 -27 425 -28 305 -1
398 8 614 59 216 51 558 181 816 310 79 39 121 54 169 59 74 8 105 22 142 63
39 41 44 56 83 211 180 711 215 1361 101 1867 -33 148 -66 252 -117 375 -193
466 -550 852 -1018 1098 -205 108 -367 164 -631 217 -105 21 -386 48 -439 42
-8 -1 -62 -5 -120 -8z m395 -304 c135 -19 266 -49 372 -85 l88 -30 -55 5 c-30
3 -112 8 -181 12 -329 15 -719 -85 -1007 -259 -341 -206 -594 -487 -750 -835
-117 -260 -172 -564 -158 -873 12 -268 83 -555 190 -768 124 -246 272 -441
436 -576 58 -47 22 -34 -50 18 -335 244 -558 513 -702 846 -65 150 -99 272
-135 480 -22 131 -25 577 -4 705 38 238 82 420 148 615 51 152 83 222 122 264
73 79 414 266 631 346 185 68 430 127 590 143 97 10 375 5 465 -8z m-538 -776
c192 -66 315 -275 283 -483 -24 -160 -135 -312 -277 -379 -65 -31 -73 -32
-188 -32 -116 0 -123 1 -188 33 -171 85 -266 268 -239 461 13 88 39 153 94
232 47 68 92 106 176 148 105 53 223 60 339 20z"/>
<path d="M8710 18031 c0 -5 11 -8 25 -8 13 0 22 3 19 8 -3 5 -14 9 -25 9 -10
0 -19 -4 -19 -9z"/>
<path d="M8780 18020 c0 -12 8 -12 35 0 18 8 17 9 -7 9 -16 1 -28 -3 -28 -9z"/>
<path d="M8863 18013 c9 -2 23 -2 30 0 6 3 -1 5 -18 5 -16 0 -22 -2 -12 -5z"/>
<path d="M7016 17403 c-6 -14 -5 -15 5 -6 7 7 10 15 7 18 -3 3 -9 -2 -12 -12z"/>
<path d="M7303 17202 c0 -12 5 -22 9 -22 11 0 10 12 -2 30 -7 12 -9 10 -7 -8z"/>
<path d="M7335 17190 c-3 -5 -1 -10 4 -10 6 0 11 5 11 10 0 6 -2 10 -4 10 -3
0 -8 -4 -11 -10z"/>
<path d="M7310 17145 c-7 -9 -11 -17 -9 -20 3 -2 10 5 17 15 14 24 10 26 -8 5z"/>
<path d="M7216 17068 c3 -5 10 -6 15 -3 13 9 11 12 -6 12 -8 0 -12 -4 -9 -9z"/>
<path d="M6817 16509 c7 -7 15 -10 18 -7 3 3 -2 9 -12 12 -14 6 -15 5 -6 -5z"/>
<path d="M6840 16478 c0 -9 5 -20 10 -23 13 -8 13 5 0 25 -8 13 -10 13 -10 -2z"/>
<path d="M6800 16435 c0 -5 5 -17 10 -25 7 -11 10 -11 10 -2 0 7 10 17 23 22
l22 9 -22 0 c-13 1 -23 -5 -23 -11 0 -9 -4 -8 -10 2 -5 8 -10 11 -10 5z"/>
<path d="M6863 16388 c3 -9 3 -19 -1 -22 -9 -10 -11 -36 -2 -36 4 0 13 7 20
15 9 11 9 15 1 15 -7 0 -10 4 -7 8 2 4 0 14 -6 22 -8 13 -9 12 -5 -2z"/>
<path d="M6805 16380 c-6 -9 -4 -11 4 -5 9 5 12 0 11 -16 -3 -39 -1 -51 10
-44 14 9 12 38 -3 60 -11 14 -16 15 -22 5z"/>
<path d="M6896 16341 c-3 -5 1 -11 9 -15 8 -3 15 -1 15 4 0 13 -18 22 -24 11z"/>
<path d="M6795 16310 c-3 -6 -3 -10 2 -10 4 0 8 -20 7 -45 0 -25 1 -43 4 -40
2 2 11 -2 18 -10 15 -15 8 -49 -8 -39 -6 4 -7 -32 -2 -98 4 -56 7 -109 7 -115
0 -7 4 -13 8 -13 4 0 6 -9 4 -20 -2 -11 1 -22 6 -26 6 -3 8 -17 5 -30 -4 -13
-2 -24 3 -24 4 0 8 -8 8 -17 0 -10 5 -29 11 -43 9 -22 11 -22 12 -5 0 11 5 27
11 35 9 13 10 13 6 -1 -4 -12 3 -16 29 -17 31 -1 33 1 24 18 -5 10 -15 22 -22
26 -6 4 -8 3 -4 -4 3 -6 2 -13 -3 -17 -6 -3 -10 12 -9 35 0 22 -5 47 -12 55
-6 8 -10 20 -7 27 4 8 6 7 6 -4 1 -10 6 -18 12 -18 16 0 0 42 -23 63 -18 16
-14 22 14 18 4 0 2 14 -4 32 l-12 32 -12 -30 c-7 -17 -13 -23 -14 -15 0 12 -2
12 -9 2 -6 -11 -9 -9 -13 6 -5 17 -2 20 16 17 20 -4 20 -3 3 9 -12 9 -14 16
-8 21 6 3 11 2 11 -4 0 -6 7 -8 16 -4 10 4 14 14 11 29 -2 14 2 25 9 28 8 3
14 10 14 16 0 6 -4 8 -10 5 -5 -3 -10 2 -10 11 0 15 -4 14 -25 -6 -21 -19 -25
-21 -25 -7 0 9 7 17 15 17 8 0 15 5 15 11 0 5 -3 8 -7 6 -5 -3 -9 11 -11 30
-2 31 0 34 20 28 l23 -7 -23 17 c-22 16 -48 12 -37 -6 4 -5 1 -9 -4 -9 -6 0
-11 3 -12 8 0 4 -2 15 -4 25 -2 9 0 17 4 17 12 0 9 25 -5 38 -8 7 -15 8 -19 2z
m82 -210 c0 -23 -4 -29 -14 -25 -8 3 -17 5 -19 5 -16 0 10 42 32 50 0 0 1 -14
1 -30z m5 -152 c-12 -12 -35 -1 -27 12 3 5 13 6 21 3 10 -4 12 -9 6 -15z m9
-81 c-10 -9 -11 -8 -5 6 3 10 9 15 12 12 3 -3 0 -11 -7 -18z"/>
<path d="M6840 16298 c0 -9 -3 -24 -7 -33 -5 -15 -3 -16 17 -5 12 7 20 8 16 2
-3 -5 3 -12 14 -15 17 -4 18 -1 13 27 -7 39 -12 44 -24 26 -8 -13 -10 -13 -19
0 -8 13 -10 13 -10 -2z"/>
<path d="M6970 16269 c0 -5 5 -7 10 -4 6 3 10 8 10 11 0 2 -4 4 -10 4 -5 0
-10 -5 -10 -11z"/>
<path d="M6966 16225 c-3 -8 -1 -15 3 -15 5 0 11 7 15 15 3 8 1 15 -3 15 -5 0
-11 -7 -15 -15z"/>
<path d="M7000 16230 c0 -5 5 -10 11 -10 5 0 7 5 4 10 -3 6 -8 10 -11 10 -2 0
-4 -4 -4 -10z"/>
<path d="M7004 16168 c3 -17 -1 -28 -10 -32 -8 -3 -14 -13 -14 -21 0 -10 5
-13 13 -9 6 4 9 4 5 -1 -4 -4 -3 -16 2 -26 7 -13 5 -28 -6 -53 -9 -19 -14 -42
-10 -51 6 -17 8 -17 26 0 15 14 17 22 9 37 -6 12 -7 18 -1 14 14 -8 2 87 -12
96 -8 5 -7 8 2 8 12 0 10 45 -3 59 -3 3 -4 -6 -1 -21z m16 -172 c0 -2 -7 -6
-15 -10 -8 -3 -15 -1 -15 4 0 6 7 10 15 10 8 0 15 -2 15 -4z"/>
<path d="M6925 16150 c3 -5 8 -10 11 -10 2 0 4 5 4 10 0 6 -5 10 -11 10 -5 0
-7 -4 -4 -10z"/>
<path d="M6924 16092 c2 -33 -1 -42 -11 -37 -8 2 -11 0 -8 -5 3 -6 13 -10 22
-10 11 0 14 7 11 25 -4 16 0 25 11 28 14 4 14 5 -1 6 -9 0 -19 9 -21 19 -3 9
-4 -2 -3 -26z"/>
<path d="M6974 16070 c0 -20 7 -25 19 -14 7 7 -2 34 -12 34 -4 0 -7 -9 -7 -20z"/>
<path d="M6916 16022 c-3 -5 1 -9 9 -9 8 0 15 4 15 9 0 4 -4 8 -9 8 -6 0 -12
-4 -15 -8z"/>
<path d="M6928 15987 c-9 -7 -13 -18 -10 -24 5 -7 12 -2 19 13 6 13 10 24 10
24 -1 0 -10 -6 -19 -13z"/>
<path d="M6976 15947 c3 -10 9 -15 12 -12 3 3 0 11 -7 18 -10 9 -11 8 -5 -6z"/>
<path d="M6940 15923 c0 -10 5 -25 10 -33 8 -12 10 -9 10 12 0 15 -4 30 -10
33 -5 3 -10 -2 -10 -12z"/>
<path d="M6990 15890 c0 -5 7 -10 16 -10 8 0 12 5 9 10 -3 6 -10 10 -16 10 -5
0 -9 -4 -9 -10z"/>
<path d="M6942 15850 c7 -10 14 -18 15 -16 6 6 -9 36 -18 36 -5 0 -4 -9 3 -20z"/>
<path d="M7000 15860 c0 -5 5 -10 10 -10 6 0 10 5 10 10 0 6 -4 10 -10 10 -5
0 -10 -4 -10 -10z"/>
<path d="M6910 15760 c0 -5 5 -10 11 -10 5 0 7 5 4 10 -3 6 -8 10 -11 10 -2 0
-4 -4 -4 -10z"/>
<path d="M6876 15741 c-4 -5 -2 -12 4 -16 5 -3 10 0 10 7 0 10 3 9 11 -2 9
-12 10 -12 7 -1 -5 18 -24 25 -32 12z"/>
<path d="M7067 15589 c4 -13 8 -18 11 -10 2 7 -1 18 -6 23 -8 8 -9 4 -5 -13z"/>
<path d="M6983 15475 c0 -8 4 -12 9 -9 4 3 8 9 8 15 0 5 -4 9 -8 9 -5 0 -9 -7
-9 -15z"/>
<path d="M7000 15431 c0 -6 5 -13 10 -16 6 -3 10 1 10 9 0 9 -4 16 -10 16 -5
0 -10 -4 -10 -9z"/>
<path d="M7097 15410 c5 -20 15 -25 26 -13 8 7 -11 33 -23 33 -5 0 -6 -9 -3
-20z"/>
<path d="M7040 15380 c-8 -14 -8 -20 0 -20 6 0 9 -4 6 -8 -2 -4 4 -8 14 -9 20
-2 35 23 20 32 -6 4 -10 1 -10 -6 0 -10 -3 -10 -12 -1 -10 10 -10 15 2 22 9 6
10 10 3 10 -7 0 -17 -9 -23 -20z"/>
<path d="M7130 15378 c0 -9 5 -20 10 -23 13 -8 13 5 0 25 -8 13 -10 13 -10 -2z"/>
<path d="M7083 15332 c-8 -5 -9 -13 -3 -22 11 -17 23 -8 18 14 -2 9 -8 12 -15
8z"/>
<path d="M7124 15318 c-4 -6 -3 -8 4 -4 5 3 12 1 14 -5 2 -7 11 -10 18 -7 11
3 10 8 -7 16 -16 9 -24 9 -29 0z"/>
<path d="M7100 15270 c-12 -8 -10 -10 8 -10 13 0 20 4 17 10 -7 12 -6 12 -25
0z"/>
<path d="M20315 17009 c-325 -34 -713 -118 -928 -201 -130 -50 -197 -134 -205
-256 -8 -111 48 -206 151 -259 89 -45 134 -42 303 15 328 111 581 159 905 169
566 18 1060 -134 1429 -442 355 -296 633 -744 842 -1359 58 -168 92 -227 161
-273 150 -101 367 -9 408 173 17 75 3 144 -65 319 -173 448 -351 798 -534
1050 -217 300 -425 497 -728 691 -318 203 -715 335 -1122 374 -124 12 -501 11
-617 -1z"/>
<path d="M30752 13744 l-2 -821 -40 -76 c-36 -68 -363 -756 -395 -832 -7 -16
-39 -84 -70 -150 -31 -66 -101 -217 -155 -335 -180 -397 -212 -464 -353 -760
-438 -919 -841 -1642 -1306 -2340 -121 -182 -368 -537 -434 -625 -33 -44 -88
-116 -121 -160 -349 -465 -905 -1087 -1312 -1468 -423 -398 -768 -681 -1287
-1058 -311 -225 -610 -413 -1076 -676 -69 -38 -130 -77 -135 -86 -9 -14 6 -34
86 -114 l96 -96 71 37 c102 53 407 233 571 336 195 123 265 169 419 274 350
241 593 428 943 721 284 240 434 379 733 679 415 417 782 833 1067 1211 100
133 95 130 160 110 105 -33 666 -224 785 -269 440 -164 985 -398 1443 -619 96
-46 205 -99 242 -116 l68 -32 3 -417 c2 -380 2 -366 5 157 1 316 -1 572 -4
569 -6 -7 -96 33 -264 117 -495 247 -1308 575 -2012 813 -160 53 -161 55 -98
142 129 178 400 586 514 775 33 55 96 159 141 230 45 72 106 173 135 225 29
52 71 124 93 160 54 87 208 374 379 705 77 149 146 279 152 290 7 11 42 83 78
160 36 77 93 196 126 265 34 69 104 217 155 330 128 277 211 456 324 700 53
113 108 234 124 270 38 89 138 283 150 290 5 4 8 455 6 1156 -2 1015 -2 1054
-5 328z"/>
<path d="M18230 12994 c-25 -3 -118 -11 -207 -19 -192 -18 -335 -41 -578 -96
-219 -48 -565 -144 -620 -172 -112 -55 -155 -123 -155 -247 0 -125 52 -208
159 -258 62 -29 108 -28 371 7 446 58 844 54 1375 -14 542 -69 1165 -242 1652
-459 317 -141 557 -282 847 -499 158 -117 184 -130 269 -130 165 0 289 137
274 302 -7 78 -32 130 -110 226 -95 117 -374 403 -502 512 -208 180 -424 328
-665 456 -342 182 -790 311 -1295 373 -125 15 -706 28 -815 18z"/>
<path d="M2630 11915 c0 -30 108 -410 168 -590 103 -312 257 -720 331 -877 23
-48 41 -95 41 -104 0 -15 8 -16 63 -10 34 4 97 9 140 13 42 3 77 9 77 13 0 17
-94 262 -140 365 -73 163 -211 558 -307 874 -47 157 -87 288 -89 290 -2 2 -56
10 -121 17 -65 7 -128 16 -140 19 -17 4 -23 1 -23 -10z"/>
<path d="M9659 10947 c-53 -35 -76 -94 -89 -233 -27 -291 33 -517 175 -659 75
-75 149 -114 319 -170 182 -58 248 -106 291 -210 21 -48 21 -137 0 -194 -8
-25 -43 -82 -76 -128 -33 -45 -74 -113 -92 -150 -30 -64 -32 -75 -32 -178 0
-90 4 -123 24 -180 92 -272 286 -513 524 -650 34 -19 47 -33 44 -44 -3 -9 -34
-113 -70 -231 -36 -118 -73 -245 -82 -281 -9 -36 -20 -70 -23 -77 -10 -15
-259 -49 -422 -57 -340 -17 -683 56 -993 211 -214 107 -368 218 -531 380 -113
113 -176 197 -264 354 -110 195 -161 235 -297 235 -69 0 -86 -4 -127 -27 -117
-69 -169 -213 -118 -325 39 -87 147 -261 219 -353 405 -518 949 -846 1592
-960 94 -17 180 -23 356 -27 242 -6 342 2 522 38 l95 18 100 -97 c385 -372
926 -676 1551 -870 508 -159 991 -239 1490 -249 311 -6 460 3 700 43 568 96
958 285 1328 643 144 140 182 205 175 298 -10 141 -108 236 -243 235 -96 0
-141 -25 -264 -150 -181 -184 -337 -287 -583 -386 -191 -77 -376 -120 -673
-156 -116 -15 -576 -14 -725 0 -474 46 -1057 191 -1469 365 -203 86 -358 172
-603 337 -184 123 -478 391 -478 435 0 38 81 344 136 514 l15 46 154 -5 c235
-7 420 29 600 118 192 94 285 186 321 316 16 60 16 78 4 219 -7 85 -10 182 -6
216 13 116 60 198 130 230 79 36 135 25 346 -71 171 -78 226 -98 306 -115 313
-65 636 85 833 385 70 105 85 146 78 207 -9 82 -94 139 -169 114 -44 -15 -63
-36 -123 -139 -160 -277 -437 -373 -710 -247 -27 13 -89 41 -138 64 -275 127
-481 119 -648 -27 -102 -90 -172 -239 -185 -393 -4 -43 -1 -142 6 -220 8 -104
9 -152 1 -172 -21 -55 -203 -149 -351 -182 -41 -9 -133 -19 -205 -22 -107 -4
-148 -1 -229 15 -286 60 -524 278 -622 570 -39 116 -32 151 56 280 82 118 118
191 136 277 40 183 -12 344 -155 485 -91 91 -189 144 -360 200 -64 20 -130 44
-146 53 -77 40 -144 200 -145 347 0 30 7 109 16 175 17 119 16 122 -4 168 -23
53 -48 67 -116 67 -28 0 -55 -8 -77 -23z"/>
<path d="M5618 10273 c18 -2 45 -2 60 0 15 2 0 4 -33 4 -33 0 -45 -2 -27 -4z"/>
<path d="M3355 10203 c-22 -2 -54 -6 -72 -8 l-32 -6 24 -62 c35 -93 245 -507
363 -717 82 -145 217 -366 237 -388 2 -2 56 13 121 33 66 20 124 38 131 40 8
3 -19 56 -71 142 -126 209 -299 525 -416 761 l-105 212 -70 -2 c-38 -1 -88 -3
-110 -5z"/>
<path d="M4068 8931 c-59 -20 -109 -39 -113 -42 -6 -7 288 -451 344 -519 21
-25 70 -92 111 -150 40 -58 92 -127 115 -155 23 -27 69 -86 102 -130 34 -44
76 -97 94 -118 l34 -38 108 70 c95 62 124 92 100 103 -23 10 -360 459 -518
690 -69 101 -148 216 -175 256 -38 54 -56 72 -73 71 -12 0 -70 -17 -129 -38z"/>
<path d="M4962 7745 c-52 -35 -99 -66 -105 -68 -14 -5 -12 -9 60 -101 48 -63
132 -159 348 -400 326 -364 812 -822 1404 -1325 158 -135 192 -168 188 -185
-3 -12 -23 -70 -45 -131 -22 -60 -50 -137 -62 -170 -12 -33 -41 -109 -64 -170
-24 -60 -93 -263 -154 -450 -142 -437 -153 -473 -203 -662 -22 -87 -60 -228
-84 -313 -53 -190 -134 -517 -174 -705 -17 -77 -51 -234 -76 -350 -73 -333
-144 -731 -195 -1085 -11 -74 -31 -211 -45 -305 -24 -166 -55 -426 -74 -635
-39 -408 -50 -542 -52 -595 -4 -104 -16 -95 131 -95 96 0 132 3 134 13 2 6 9
77 15 157 39 512 102 1051 187 1600 40 260 118 662 209 1080 78 359 106 473
200 835 108 415 302 1040 455 1465 29 80 66 184 83 233 18 50 36 87 44 87 7 0
30 -15 50 -34 51 -44 562 -470 688 -572 55 -44 198 -154 318 -243 766 -570
1597 -1022 2401 -1305 403 -143 699 -229 1041 -305 279 -62 491 -97 950 -156
163 -21 481 -37 840 -42 481 -6 791 6 847 32 90 43 97 183 11 236 -34 21 -34
21 -376 9 -435 -16 -812 -6 -1157 30 -394 42 -492 54 -620 75 -511 86 -967
207 -1485 393 -282 101 -495 194 -855 374 -589 292 -1001 555 -1614 1026 -302
232 -363 283 -936 777 -115 99 -374 321 -409 350 -70 58 -317 270 -366 314
-544 489 -939 893 -1274 1304 -35 42 -69 77 -75 76 -6 0 -53 -29 -104 -64z"/>
<path d="M30754 5325 c0 -49 1 -71 3 -48 2 23 2 64 0 90 -2 26 -3 8 -3 -42z"/>
<path d="M30753 4585 c0 -38 2 -53 4 -32 2 20 2 52 0 70 -2 17 -4 1 -4 -38z"/>
<path d="M30752 4435 c0 -16 2 -22 5 -12 2 9 2 23 0 30 -3 6 -5 -1 -5 -18z"/>
<path d="M23694 4173 c-411 -199 -833 -376 -1244 -521 -195 -69 -797 -262
-818 -262 -31 0 -16 -29 62 -125 48 -57 91 -107 96 -110 13 -8 90 13 348 95
533 169 998 349 1442 559 271 128 513 253 517 266 3 11 -147 183 -171 197 -7
4 -102 -36 -232 -99z"/>
<path d="M30755 1830 c0 -1009 1 -1422 2 -917 2 504 2 1330 0 1835 -1 504 -2
91 -2 -918z"/>
<path d="M21340 3314 c-47 -14 -155 -40 -242 -59 -209 -45 -245 -65 -255 -144
-7 -50 25 -119 66 -144 42 -25 96 -21 263 18 81 19 215 51 296 70 82 19 156
35 165 35 10 0 17 2 17 5 0 12 -204 245 -214 244 -6 -1 -49 -12 -96 -25z"/>
</g>
</svg>
